<svg xmlns="http://www.w3.org/2000/svg" viewBox="0 0 128 128" role="img" aria-label="Partum Domains">
  <defs>
    <linearGradient id="bg" x1="16" y1="8" x2="112" y2="120" gradientUnits="userSpaceOnUse">
      <stop stop-color="#0B5BD3"/>
      <stop offset=".58" stop-color="#083B8E"/>
      <stop offset="1" stop-color="#061326"/>
    </linearGradient>
    <linearGradient id="globe" x1="32" y1="29" x2="96" y2="99" gradientUnits="userSpaceOnUse">
      <stop stop-color="#EAF6FF"/>
      <stop offset=".56" stop-color="#9DDCFF"/>
      <stop offset="1" stop-color="#4AA3FF"/>
    </linearGradient>
    <filter id="shadow" x="-20%" y="-20%" width="140%" height="140%">
      <feDropShadow dx="0" dy="10" stdDeviation="8" flood-color="#031226" flood-opacity=".34"/>
    </filter>
  </defs>
  <rect width="128" height="128" rx="29" fill="url(#bg)"/>
  <path d="M23 77c19 21 58 28 84 6" fill="none" stroke="#47D7F5" stroke-width="6" stroke-linecap="round" opacity=".42"/>
  <path d="M21 53c25-21 64-24 86-5" fill="none" stroke="#FFFFFF" stroke-width="5" stroke-linecap="round" opacity=".26"/>
  <g filter="url(#shadow)">
    <circle cx="64" cy="62" r="34" fill="url(#globe)"/>
    <path d="M34 62h60M64 28c9 10 14 21 14 34S73 86 64 96M64 28C55 38 50 49 50 62s5 24 14 34" fill="none" stroke="#073B79" stroke-width="4" stroke-linecap="round" opacity=".72"/>
    <path d="M39 47c7 5 16 8 25 8s18-3 25-8M39 77c7-5 16-8 25-8s18 3 25 8" fill="none" stroke="#073B79" stroke-width="4" stroke-linecap="round" opacity=".62"/>
  </g>
  <path d="M81 79h16a8 8 0 0 1 8 8v10a8 8 0 0 1-8 8H72a8 8 0 0 1-8-8V87a8 8 0 0 1 8-8h3v-7a14 14 0 0 1 28 0v7h-9v-7a5 5 0 0 0-10 0v7Z" fill="#F8FBFF"/>
  <circle cx="84.5" cy="93" r="4.5" fill="#0B5BD3"/>
  <path d="M84.5 96v5" stroke="#0B5BD3" stroke-width="4" stroke-linecap="round"/>
  <path d="M34 102h23" stroke="#45E4C8" stroke-width="7" stroke-linecap="round"/>
  <path d="M38 90h14" stroke="#FFD166" stroke-width="7" stroke-linecap="round"/>
</svg>
